<svg version="1.1" xmlns="http://www.w3.org/2000/svg" xmlns:xlink="http://www.w3.org/1999/xlink" width="91.11867" height="116.75775" viewBox="0,0,91.11867,116.75775"><g transform="translate(-189.38132,-137.25303)"><g data-paper-data="{&quot;isPaintingLayer&quot;:true}" fill="#9966ff" fill-rule="nonzero" stroke="#000000" stroke-width="0" stroke-linecap="butt" stroke-linejoin="miter" stroke-miterlimit="10" stroke-dasharray="" stroke-dashoffset="0" style="mix-blend-mode: normal"><path d="M189.5,209.8125v-72.55947h0.00449c0.18794,7.45554 8.68888,16.43533 14.29934,19.70826c2.5423,1.48308 6.89813,1.1786 9.07849,2.75858c3.77533,2.73575 8.64098,2.21036 12.88695,3.26529c13.98179,3.47382 30.88759,-0.88773 42.35879,-9.25023c5.15867,-3.76067 9.85089,-7.30163 12.37193,-13.13455v69.21212z"/><path d="M189.38132,254.01078v-72.55947h0.00449c0.18794,7.45554 8.68888,16.43533 14.29934,19.70826c2.5423,1.48308 6.89813,1.1786 9.07849,2.75858c3.77533,2.73575 8.64098,2.21036 12.88695,3.26529c13.98179,3.47382 30.88759,-0.88773 42.35879,-9.25023c5.15867,-3.76067 9.85089,-7.30163 12.37193,-13.13455v69.21212z"/></g></g></svg>