<svg version="1.1" xmlns="http://www.w3.org/2000/svg" xmlns:xlink="http://www.w3.org/1999/xlink" width="91.01604" height="110.83087" viewBox="0,0,91.01604,110.83087"><g transform="translate(-189.5,-137.25303)"><g data-paper-data="{&quot;isPaintingLayer&quot;:true}" fill="#9966ff" fill-rule="nonzero" stroke="#000000" stroke-width="0" stroke-linecap="butt" stroke-linejoin="miter" stroke-miterlimit="10" stroke-dasharray="" stroke-dashoffset="0" style="mix-blend-mode: normal"><path d="M189.5,209.8125v-72.55947h0.25738c0.08416,0.81306 0.21584,1.61201 0.39222,2.39403c0.45567,6.22743 9.94685,17.26772 15.97874,19.76371c2.72562,1.12786 5.16279,3.04577 8.17793,3.7756c16.8513,4.07893 32.28549,1.70003 47.55472,-5.93458c5.28669,-2.64334 12.28,-7.42566 15.96192,-11.89922c0.80897,-0.9829 0.56882,-2.48767 0.99641,-3.68671c0.42944,-1.20425 1.15804,-2.63717 1.68069,-4.11484v72.26147z"/><path d="M189.51603,248.0839v-72.55947h0.25738c0.08416,0.81306 0.21584,1.61201 0.39222,2.39403c0.45567,6.22743 9.94685,17.26772 15.97874,19.76371c2.72562,1.12786 5.16279,3.04577 8.17793,3.7756c16.8513,4.07893 32.28549,1.70003 47.55472,-5.93458c5.28669,-2.64334 12.28,-7.42566 15.96192,-11.89922c0.80897,-0.9829 0.56882,-2.48767 0.99641,-3.68671c0.42944,-1.20425 1.15804,-2.63717 1.68069,-4.11484v72.26147z"/></g></g></svg>