<svg version="1.1" xmlns="http://www.w3.org/2000/svg" xmlns:xlink="http://www.w3.org/1999/xlink" width="91.11869" height="95.84275" viewBox="0,0,91.11869,95.84275"><g transform="translate(-189.38132,-137.28922)"><g data-paper-data="{&quot;isPaintingLayer&quot;:true}" fill="#9966ff" fill-rule="nonzero" stroke="#000000" stroke-width="0" stroke-linecap="butt" stroke-linejoin="miter" stroke-miterlimit="10" stroke-dasharray="" stroke-dashoffset="0" style="mix-blend-mode: normal"><path d="M189.5,209.8125v-72.52328c0.55747,1.46468 1.27801,2.84895 2.13944,4.13062c3.40691,7.16739 13.83006,10.80868 20.42858,14.49721c4.11647,2.30108 9.3894,4.80286 14.07278,5.89825c16.80003,3.92932 38.98843,-4.63272 51.0086,-16.32802c1.97926,-1.92577 2.67367,-4.81415 3.35061,-7.57085v71.89606z"/><path d="M189.38132,233.13197v-72.52328c0.55747,1.46468 1.27801,2.84895 2.13944,4.13062c3.40691,7.16739 13.83006,10.80868 20.42858,14.49721c4.11647,2.30108 9.3894,4.80286 14.07278,5.89825c16.80003,3.92932 38.98843,-4.63272 51.0086,-16.32802c1.97926,-1.92577 2.67367,-4.81415 3.35061,-7.57085v71.89606z"/></g></g></svg>