<svg version="1.1" xmlns="http://www.w3.org/2000/svg" xmlns:xlink="http://www.w3.org/1999/xlink" width="91.01603" height="111.8121" viewBox="0,0,91.01603,111.8121"><g transform="translate(-189.5,-137.75352)"><g data-paper-data="{&quot;isPaintingLayer&quot;:true}" fill="#9966ff" fill-rule="nonzero" stroke="#000000" stroke-width="0" stroke-linecap="butt" stroke-linejoin="miter" stroke-miterlimit="10" stroke-dasharray="" stroke-dashoffset="0" style="mix-blend-mode: normal"><path d="M189.5,209.8125v-71.21856c0.55425,1.41052 1.38353,2.82752 2.4068,4.21768c1.48156,2.38805 3.44014,4.44916 5.74262,6.05024c4.17692,3.60474 8.95869,6.54383 12.31076,7.98043c4.4619,1.91224 8.29544,4.01388 13.14361,5.03259c2.86601,0.60221 6.56344,0.70573 9.53892,0.74706c16.52089,0.22946 44.14832,-5.26831 47.85729,-24.86842v72.05897z"/><path d="M189.51603,249.56562v-71.21856c0.55425,1.41052 1.38353,2.82752 2.4068,4.21768c1.48156,2.38805 3.44014,4.44916 5.74262,6.05024c4.17692,3.60474 8.95869,6.54383 12.31076,7.98043c4.4619,1.91224 8.29544,4.01388 13.14361,5.03259c2.86601,0.60221 6.56344,0.70573 9.53892,0.74706c16.52089,0.22946 44.14832,-5.26831 47.85729,-24.86842v72.05897z"/></g></g></svg>