<svg version="1.1" xmlns="http://www.w3.org/2000/svg" xmlns:xlink="http://www.w3.org/1999/xlink" width="602" height="455" viewBox="0,0,602,455"><g transform="translate(55.5,46.1875)"><g data-paper-data="{&quot;isPaintingLayer&quot;:true}" fill-rule="nonzero" stroke="#000000" stroke-width="2" stroke-linecap="butt" stroke-linejoin="miter" stroke-miterlimit="10" stroke-dasharray="" stroke-dashoffset="0" style="mix-blend-mode: normal"><path d="M-54.5,407.8125v-453h600v453z" fill="#9966ff"/><path d="M127.5,127.3125c0,14.63555 -19.47561,26.5 -43.5,26.5c-24.02439,0 -43.5,-11.86445 -43.5,-26.5c0,-14.63555 19.47561,-26.5 43.5,-26.5c24.02439,0 43.5,11.86445 43.5,26.5z" fill="#000000"/><path d="M271.5,149.3125c0,14.63555 -19.47562,26.5 -43.5,26.5c-24.02438,0 -43.5,-11.86445 -43.5,-26.5c0,-14.63555 19.47562,-26.5 43.5,-26.5c24.02438,0 43.5,11.86445 43.5,26.5z" fill="#000000"/><path d="M196.5,264.3125c0,14.63554 -19.47562,26.5 -43.5,26.5c-24.02438,0 -43.5,-11.86446 -43.5,-26.5c0,-14.63555 19.47562,-26.5 43.5,-26.5c24.02438,0 43.5,11.86445 43.5,26.5z" fill="#000000"/><path d="M421.5,122.3125c0,14.63555 -19.47562,26.5 -43.5,26.5c-24.02438,0 -43.5,-11.86445 -43.5,-26.5c0,-14.63555 19.47562,-26.5 43.5,-26.5c24.02438,0 43.5,11.86445 43.5,26.5z" fill="#000000"/><path d="M351.5,268.3125c0,14.63554 -19.47562,26.5 -43.5,26.5c-24.02438,0 -43.5,-11.86446 -43.5,-26.5c0,-14.63554 19.47562,-26.5 43.5,-26.5c24.02438,0 43.5,11.86446 43.5,26.5z" fill="#000000"/></g></g></svg>