<svg version="1.1" xmlns="http://www.w3.org/2000/svg" xmlns:xlink="http://www.w3.org/1999/xlink" width="121.83447" height="158.85701" viewBox="0,0,121.83447,158.85701"><defs><linearGradient x1="206.1369" y1="198.154" x2="188.3287" y2="173.6675" gradientUnits="userSpaceOnUse" id="color-1"><stop offset="0" stop-color="#ac7f2e"/><stop offset="1" stop-color="#d29839"/></linearGradient><linearGradient x1="273.2558" y1="198.1" x2="289.4893" y2="172.4613" gradientUnits="userSpaceOnUse" id="color-2"><stop offset="0" stop-color="#ac7f2e"/><stop offset="1" stop-color="#d29839"/></linearGradient><linearGradient x1="219.1569" y1="164.7468" x2="219.1569" y2="222.2519" gradientUnits="userSpaceOnUse" id="color-3"><stop offset="0" stop-color="#9f7a29"/><stop offset="1" stop-color="#d29839"/></linearGradient><linearGradient x1="227.4621" y1="176.2081" x2="227.4621" y2="214.0614" gradientUnits="userSpaceOnUse" id="color-4"><stop offset="0" stop-color="#f3b271"/><stop offset="1" stop-color="#ffcb99"/></linearGradient><linearGradient x1="185.75" y1="114.25" x2="212.25" y2="114.25" gradientUnits="userSpaceOnUse" id="color-5"><stop offset="0" stop-color="#cbbd7c"/><stop offset="1" stop-color="#b4812d"/></linearGradient><linearGradient x1="267.5" y1="114.5" x2="294" y2="114.5" gradientUnits="userSpaceOnUse" id="color-6"><stop offset="0" stop-color="#b4812d"/><stop offset="1" stop-color="#cbbd7c"/></linearGradient><linearGradient x1="218.4994" y1="151.25232" x2="218.4994" y2="168.75141" gradientUnits="userSpaceOnUse" id="color-7"><stop offset="0" stop-color="#ffcb6b"/><stop offset="1" stop-color="#ffcb99"/></linearGradient><linearGradient x1="205" y1="157.41024" x2="217.5" y2="157.41024" gradientUnits="userSpaceOnUse" id="color-8"><stop offset="0" stop-color="#fe9e6c"/><stop offset="1" stop-color="#ffcb99"/></linearGradient><linearGradient x1="262.75" y1="156.4235" x2="275.25" y2="156.4235" gradientUnits="userSpaceOnUse" id="color-9"><stop offset="0" stop-color="#fe9e6c"/><stop offset="1" stop-color="#ffcb99"/></linearGradient></defs><g transform="translate(-172.16553,-94.93383)"><g data-paper-data="{&quot;isPaintingLayer&quot;:true}" fill-rule="nonzero" stroke-linejoin="miter" stroke-miterlimit="10" stroke-dasharray="" stroke-dashoffset="0" style="mix-blend-mode: normal"><g stroke="none" stroke-width="1" stroke-linecap="round"><path d="M259.85,218.65c0.95,2.017 1.481,4.239 1.95,6.425c0.388,1.817 0.759,3.538 0.7,5.325c-0.184,5.611 0.68,11.579 -1.25,16.85c-0.665,1.618 -3.556,0.505 -5.25,0.4c-0.774,-0.048 -2.003,0.249 -2.15,-0.9c-0.818,-4.541 -0.056,-9.246 -0.35,-13.85c-0.127,-1.983 -0.222,-3.95 -0.85,-5.75c-0.709,-2.041 -1.685,-4.01 -3.1,-5.6c-1.453,-1.634 -6.349,-2.528 -5.15,-3.8c2.151,-2.478 7.683,-3.958 11.85,-3.7c1.941,0.12 2.673,2.888 3.6,4.6z" fill="#b4852d"/><path d="M263.8,246c1.021,0.704 2.371,1.484 2.5,2.7c0.15,1.455 -0.536,3.269 -1.8,4c-1.777,1.028 -4.058,0.655 -6.1,0.65c-2.144,0.005 -4.573,0.443 -6.4,-0.65c-1.036,-0.62 -0.839,-2.392 -0.6,-3.575c0.297,-1.466 0.798,-2.958 2.088,-3.976c1.29,-1.019 3.283,-1.834 5.037,-1.649c1.962,0.208 3.672,1.405 5.275,2.5z" fill="#fdcb96"/><path d="M261.85,243.7c0.719,0.195 1.276,0.952 1.6,1.65c0.252,0.547 0.588,1.339 0.15,1.7c-0.846,0.694 -2.027,0.848 -3.1,0.9c-2.389,0.113 -4.695,-0.058 -7,-0.4c-0.597,-0.092 -1.387,-0.217 -1.4,-0.7c-0.069,-1.042 0.396,-2.245 1.212,-2.767c1.1,-0.706 2.569,-0.662 3.888,-0.733c1.518,-0.081 3.155,-0.164 4.65,0.35z" fill="#cc9832"/></g><path d="M189.75,184.1c3.586,1.493 6.556,4.357 9.25,7.15c1.474,1.647 2.46,3.775 3,5.9c0.907,3.569 0.744,7.34 1.15,11c0.371,3.339 -0.039,6.753 1.1,9.85c0.657,1.782 2.077,3.38 3.75,3.9c2.814,0.952 5.938,0.49 8.75,0.2c3.375,-0.345 6.762,-0.775 10,-1.95c2.33,-0.845 4.045,-3.523 6.4,-3.8c3.629,-0.426 12.4,0.087 10.85,1.65c-2.728,2.752 -13.156,6.019 -20.121,7.774c-4.587,1.154 -9.397,1.476 -14.029,1.076c-2.881,-0.324 -6.068,-1.174 -8,-3.2c-2.079,-2.18 -2.583,-5.532 -3.1,-8.5c-0.774,-4.443 -0.021,-8.925 -0.75,-13.3c-0.44,-2.638 -1.067,-5.61 -2.85,-7.75c-2.281,-2.692 -5.451,-4.68 -8.8,-6.1c-4.287,-1.816 -9.493,-0.929 -13.6,-3.25c-1.16,-0.656 -0.454,-3.838 0.9,-3.9c5.385,-0.246 11.051,1.148 16.1,3.25z" fill="#a97a2a" stroke="none" stroke-width="1" stroke-linecap="round"/><g stroke="none" stroke-width="1"><path d="M191.8494,176.7943c-1.7865,-0.396 -2.9888,-2.3161 -3.8966,-3.6578c-0.6433,-0.9491 -0.9959,-2.2024 -0.8341,-3.3266c0.1611,-1.1249 0.7494,-2.176 1.7256,-2.8859c0.9761,-0.7099 2.1573,-0.9458 3.2772,-0.7525c1.1193,0.1925 2.2077,0.907 2.9078,1.8186c0.9945,1.2909 2.4467,3.0157 2.2791,4.834c-0.2425,1.037 -2.3111,0.6595 -3.1706,1.3785c-0.8781,0.7376 -1.2308,2.6856 -2.2884,2.5917z" fill="#fccd97" stroke-linecap="round"/><path d="M202.1859,185.9376c-4.8633,-2.3006 -9.9042,-5.5849 -12.2965,-10.532c-1.0369,-2.1467 2.466,-5.5574 4.779,-5.3303c3.2153,0.2285 4.5956,4.4897 7.058,6.3045c2.2797,1.6793 4.8123,3.4851 7.3889,4.2091c2.8456,0.7929 5.8693,0.7714 8.8409,0.6801c2.243,-0.1684 5.0821,-2.5757 6.6721,-1.452c1.3063,0.9307 0.3569,3.9285 -0.8271,5.2384c-1.6712,1.8472 -4.1969,3.1128 -6.5986,3.2533c-5.0938,0.1657 -10.4979,-0.2194 -15.0167,-2.3711z" fill="url(#color-1)" stroke-linecap="butt"/><path d="M191.4827,176.1138c-0.9613,0.1402 -1.7592,-0.0523 -2.165,-0.6104c-0.4059,-0.558 -0.3432,-1.3764 0.0864,-2.2477c0.4291,-0.8722 1.2252,-1.7974 2.2846,-2.5679c1.0595,-0.7705 2.185,-1.2428 3.1469,-1.3823c0.9614,-0.1402 1.7592,0.0523 2.1651,0.6103c0.4058,0.5581 0.3432,1.3764 -0.0865,2.2478c-0.4291,0.8722 -1.2252,1.7974 -2.2846,2.5679c-1.0595,0.7705 -2.1849,1.2428 -3.1469,1.3823z" fill="#cd9934" stroke-linecap="round"/></g><g stroke="none" stroke-width="1"><path d="M280.667,172.5455c-0.2906,-1.8067 1.0511,-3.6322 1.9636,-4.9706c0.6452,-0.9479 1.6802,-1.7377 2.7848,-2.0018c1.1052,-0.2649 2.2991,-0.1055 3.3189,0.5402c1.0197,0.6457 1.6744,1.6567 1.9076,2.769c0.2337,1.1114 -0.0292,2.3865 -0.6185,3.3734c-0.8334,1.4004 -1.9014,3.3861 -3.6534,3.9007c-1.0533,0.1568 -1.465,-1.9053 -2.4503,-2.4391c-1.0093,-0.5444 -2.9502,-0.1541 -3.2527,-1.1718z" fill="#fccd97" stroke-linecap="round"/><path d="M263.5052,188.3521c-3.5836,-0.1538 -7.4082,-0.8971 -10.265,-2.9485c-1.166,-0.9774 -0.9185,-3.9217 0.3656,-4.5029c2.0723,-0.9308 4.5025,0.9961 6.7516,1.0199c2.9714,-0.0999 5.9902,-0.2729 8.7789,-1.2471c2.5248,-0.8882 4.9359,-2.8532 7.103,-4.6756c2.3406,-1.9694 3.444,-6.3105 6.638,-6.7453c2.2935,-0.3753 5.9666,2.7646 5.1118,5.012c-1.9941,5.2318 -6.9393,9.0661 -11.7767,11.7768c-3.869,2.1699 -8.418,2.4866 -12.7072,2.3107z" fill="url(#color-2)" stroke-linecap="butt"/><path d="M281.0486,171.8082c-0.4849,-0.842 -0.6,-1.6546 -0.2309,-2.2376c0.3691,-0.583 1.153,-0.8264 2.1214,-0.7483c0.9689,0.0774 2.1224,0.4763 3.2292,1.1771c1.1068,0.7008 1.9607,1.5729 2.445,2.4157c0.4848,0.8419 0.5999,1.6545 0.2308,2.2375c-0.3691,0.583 -1.1529,0.8264 -2.1213,0.7483c-0.9689,-0.0773 -2.1224,-0.4763 -3.2292,-1.1771c-1.1068,-0.7008 -1.9608,-1.5728 -2.445,-2.4156z" fill="#cd9934" stroke-linecap="round"/></g><g stroke="none" stroke-width="1" stroke-linecap="round"><path d="M224.25,214.15c4.167,-0.258 9.699,1.222 11.85,3.7c1.199,1.272 -3.697,2.166 -5.15,3.8c-1.415,1.59 -2.391,3.559 -3.1,5.6c-0.628,1.8 -0.723,3.767 -0.85,5.75c-0.294,4.604 0.468,9.309 -0.35,13.85c-0.147,1.149 -1.376,0.852 -2.15,0.9c-1.694,0.105 -4.585,1.218 -5.25,-0.4c-1.93,-5.271 -1.066,-11.239 -1.25,-16.85c-0.059,-1.787 0.312,-3.508 0.7,-5.325c0.469,-2.186 1,-4.408 1.95,-6.425c0.927,-1.712 1.659,-4.48 3.6,-4.6z" fill="#b4852d"/><path d="M222.575,243.85c1.754,-0.185 3.747,0.63 5.037,1.649c1.29,1.018 1.791,2.51 2.088,3.976c0.239,1.183 0.436,2.955 -0.6,3.575c-1.827,1.093 -4.256,0.655 -6.4,0.65c-2.042,0.005 -4.323,0.378 -6.1,-0.65c-1.264,-0.731 -1.95,-2.545 -1.8,-4c0.129,-1.216 1.479,-1.996 2.5,-2.7c1.603,-1.095 3.313,-2.292 5.275,-2.5z" fill="#fdcb96"/><path d="M223.95,243.5c1.319,0.071 2.788,0.027 3.888,0.733c0.816,0.522 1.281,1.725 1.212,2.767c-0.013,0.483 -0.803,0.608 -1.4,0.7c-2.305,0.342 -4.611,0.513 -7,0.4c-1.073,-0.052 -2.254,-0.206 -3.1,-0.9c-0.438,-0.361 -0.102,-1.153 0.15,-1.7c0.324,-0.698 0.881,-1.455 1.6,-1.65c1.495,-0.514 3.132,-0.431 4.65,-0.35z" fill="#cc9832"/></g><g stroke="none" stroke-linecap="round"><path d="M257.4312,165.57c2.9685,0.4056 1.8648,0.5013 2.0112,4.1777c0.584,14.7039 1.7296,29.6432 0,44.4353c-0.428,3.5381 -3.1633,5.5251 -6.0337,6.8362c-3.6346,1.6604 -7.9612,1.1393 -12.0673,1.1393c-4.6371,0 -9.7536,0.5773 -14.0785,-1.1393c-3.1408,-1.264 -6.3024,-3.5199 -6.8382,-7.216c-2.1415,-14.786 -1.0667,-29.8028 -0.4022,-44.8151c0.1657,-3.7538 -0.0708,-3.1811 2.8157,-3.4181c11.5492,-0.951 23.2239,-1.2351 34.593,0z" fill="url(#color-3)" stroke-width="1.56471"/><path d="M251.25,176.75c1.845,0.267 1.159,0.33 1.25,2.75c0.363,9.679 1.075,19.513 0,29.25c-0.266,2.329 -1.966,3.637 -3.75,4.5c-2.259,1.093 -4.948,0.75 -7.5,0.75c-2.882,0 -6.062,0.38 -8.75,-0.75c-1.952,-0.832 -3.917,-2.317 -4.25,-4.75c-1.331,-9.733 -0.663,-19.618 -0.25,-29.5c0.103,-2.471 -0.044,-2.094 1.75,-2.25c7.178,-0.626 14.434,-0.813 21.5,0z" fill="url(#color-4)" stroke-width="1"/><path d="M240.25,207.25c0.552,0 1.052,0.168 1.414,0.44c0.362,0.271 0.586,0.646 0.586,1.06c0,0.414 -0.224,0.789 -0.586,1.06c-0.362,0.272 -0.862,0.44 -1.414,0.44c-0.552,0 -1.052,-0.168 -1.414,-0.44c-0.362,-0.271 -0.586,-0.646 -0.586,-1.06c0,-0.414 0.224,-0.789 0.586,-1.06c0.362,-0.272 0.862,-0.44 1.414,-0.44z" fill="#fccded" stroke-width="1"/></g><g fill="#cd9934" stroke="none" stroke-width="1" stroke-linecap="butt"><path d="M220.375,170.5c1.966,0 3.747,0.896 5.037,2.345c1.29,1.448 2.088,3.448 2.088,5.655c0,2.207 -0.798,4.207 -2.088,5.655c-1.29,1.449 -3.071,2.345 -5.037,2.345c-1.966,0 -3.747,-0.896 -5.037,-2.345c-1.29,-1.448 -2.088,-3.448 -2.088,-5.655c0,-2.207 0.798,-4.207 2.088,-5.655c1.29,-1.449 3.071,-2.345 5.037,-2.345z"/><path d="M232.975,170.25c1.966,0 3.747,0.896 5.037,2.345c1.29,1.448 2.088,3.448 2.088,5.655c0,2.207 -0.798,4.207 -2.088,5.655c-1.29,1.449 -3.071,2.345 -5.037,2.345c-1.966,0 -3.747,-0.896 -5.037,-2.345c-1.29,-1.448 -2.088,-3.448 -2.088,-5.655c0,-2.207 0.798,-4.207 2.088,-5.655c1.29,-1.449 3.071,-2.345 5.037,-2.345z"/><path d="M246.875,170.25c1.966,0 3.747,0.896 5.037,2.345c1.29,1.448 2.088,3.448 2.088,5.655c0,2.207 -0.798,4.207 -2.088,5.655c-1.29,1.449 -3.071,2.345 -5.037,2.345c-1.966,0 -3.747,-0.896 -5.037,-2.345c-1.29,-1.448 -2.088,-3.448 -2.088,-5.655c0,-2.207 0.798,-4.207 2.088,-5.655c1.29,-1.449 3.071,-2.345 5.037,-2.345z"/><path d="M260.625,170c1.966,0 3.747,0.896 5.037,2.345c1.29,1.448 2.088,3.448 2.088,5.655c0,2.207 -0.798,4.207 -2.088,5.655c-1.29,1.449 -3.071,2.345 -5.037,2.345c-1.966,0 -3.747,-0.896 -5.037,-2.345c-1.29,-1.448 -2.088,-3.448 -2.088,-5.655c0,-2.207 0.798,-4.207 2.088,-5.655c1.29,-1.449 3.071,-2.345 5.037,-2.345z"/><path d="M239.5,168.25c6.139,0 11.701,0.686 15.729,1.795c4.028,1.109 6.521,2.64 6.521,4.33c0,1.69 -2.493,3.221 -6.521,4.33c-4.028,1.109 -9.59,1.795 -15.729,1.795c-6.139,0 -11.701,-0.686 -15.729,-1.795c-4.028,-1.109 -6.521,-2.64 -6.521,-4.33c0,-1.69 2.493,-3.221 6.521,-4.33c4.028,-1.109 9.59,-1.795 15.729,-1.795z"/></g><g stroke="none" stroke-linecap="butt"><path d="M199,114.25c3.656,0 6.968,1.401 9.367,3.664c2.398,2.262 3.883,5.387 3.883,8.836c0,3.449 -1.485,6.574 -3.883,8.836c-2.399,2.263 -5.711,3.664 -9.367,3.664c-3.656,0 -6.968,-1.401 -9.367,-3.664c-2.398,-2.262 -3.883,-5.387 -3.883,-8.836c0,-3.449 1.485,-6.574 3.883,-8.836c2.399,-2.263 5.711,-3.664 9.367,-3.664z" fill="url(#color-5)" stroke-width="1"/><path d="M198.125,118.9875c2.242,0 4.273,0.882 5.744,2.3079c1.471,1.4259 2.381,3.3946 2.381,5.5671c0,2.1724 -0.91,4.1412 -2.381,5.5671c-1.471,1.4259 -3.502,2.3079 -5.744,2.3079c-2.242,0 -4.273,-0.882 -5.744,-2.3079c-1.471,-1.4259 -2.381,-3.3947 -2.381,-5.5671c0,-2.1725 0.91,-4.1412 2.381,-5.5671c1.471,-1.4259 3.502,-2.3079 5.744,-2.3079z" fill="#fecc99" stroke-width="1.0253"/></g><g stroke="none" stroke-linecap="butt"><path d="M280.75,114.5c3.656,0 6.968,1.401 9.367,3.664c2.398,2.262 3.883,5.387 3.883,8.836c0,3.449 -1.485,6.574 -3.883,8.836c-2.399,2.263 -5.711,3.664 -9.367,3.664c-3.656,0 -6.968,-1.401 -9.367,-3.664c-2.398,-2.262 -3.883,-5.387 -3.883,-8.836c0,-3.449 1.485,-6.574 3.883,-8.836c2.399,-2.263 5.711,-3.664 9.367,-3.664z" fill="url(#color-6)" stroke-width="1"/><path d="M282.125,119.2375c2.242,0 4.273,0.882 5.744,2.3079c1.471,1.4259 2.381,3.3946 2.381,5.5671c0,2.1724 -0.91,4.1412 -2.381,5.5671c-1.471,1.4259 -3.502,2.3079 -5.744,2.3079c-2.242,0 -4.273,-0.882 -5.744,-2.3079c-1.471,-1.4259 -2.381,-3.3947 -2.381,-5.5671c0,-2.1725 0.91,-4.1412 2.381,-5.5671c1.471,-1.4259 3.502,-2.3079 5.744,-2.3079z" fill="#fecc99" stroke-width="1.0253"/></g><g stroke="none"><g><g><path d="M240.3218,107.17316c11.191,0 21.3319,3.53818 28.675,9.2538c7.3431,5.71649 11.8884,13.61034 11.8884,22.32159c0,8.71126 -4.5453,16.6051 -11.8884,22.32151c-7.3431,5.71562 -17.484,9.25388 -28.675,9.25388c-11.1909,0 -21.3318,-3.53826 -28.6749,-9.25388c-7.3431,-5.71641 -11.8884,-13.61026 -11.8884,-22.32151c0,-8.71126 4.5453,-16.6051 11.8884,-22.32159c7.3431,-5.71562 17.484,-9.2538 28.6749,-9.2538z" fill="#cd9933" stroke-width="1.12676" stroke-linecap="butt"/><path d="M246.25,119.12508c5.596,-0.26839 11.535,0.77123 16,3.15754c5.06,2.76521 9.031,6.98527 11,11.44608c1.763,3.96587 0.269,8.35564 0,12.63016c-0.067,1.06883 -0.928,-0.44837 -0.5,0c1.71,1.79269 4.302,3.25069 5.75,5.32835c0.96,1.6585 1.644,3.68248 1.25,5.52569c-0.655,3.05966 -1.26,6.67188 -4.25,8.68323c-5.781,3.87114 -13.327,6.66004 -21,7.89385c-9.209,1.52588 -18.933,1.30643 -28.5,0.19735c-7.101,-0.82412 -14.25,-2.70206 -20.25,-5.92039c-3.323,-1.85032 -5.187,-5.23757 -6.25,-8.48589c-0.837,-2.56471 0.031,-5.28414 1.25,-7.89385c0.925,-1.97267 3.267,-3.2941 5,-4.93365c0.433,-0.40969 0.865,-0.26997 1,-1.18408c0.54,-3.65564 -0.796,-7.51415 0.5,-11.05139c1.439,-3.91456 3.764,-8.30275 8,-11.05139c4.149,-2.60339 9.873,-3.8672 15.5,-3.94692c3.283,-0.04342 5.818,2.63576 8.5,3.94692c0.671,0.32759 -1.04,0.36706 -0.5,0c2.153,-1.46589 4.404,-4.19242 7.5,-4.34162z" fill="#ffcb99" stroke-width="1" stroke-linecap="round"/></g><path d="M240.5039,151.34531c4.7798,0.00537 9.8606,-0.58186 13.9925,1.12937c3.5287,1.46818 7.03,4.29346 7.2108,7.31846c0.0927,3.08728 -3.1453,6.09689 -6.5378,7.55244c-4.3586,1.87029 -9.8811,1.35348 -14.923,1.30193c-4.7935,0.05155 -10.0403,0.44363 -14.408,-1.30193c-3.46,-1.3815 -7.1021,-4.06849 -7.339,-7.14591c-0.0069,-3.01134 3.3513,-6.0815 6.753,-7.49916c4.5234,-1.8856 10.1433,-1.35979 15.2515,-1.35522z" fill="url(#color-7)" stroke-width="1.14458" stroke-linecap="round"/><path d="M211.25,157.41024c1.724,0 3.287,0.50836 4.418,1.33011c1.132,0.82175 1.832,1.95688 1.832,3.20885c0,1.25196 -0.7,2.3871 -1.832,3.20885c-1.131,0.82175 -2.694,1.33011 -4.418,1.33011c-1.724,0 -3.287,-0.50836 -4.418,-1.33011c-1.132,-0.82175 -1.832,-1.95688 -1.832,-3.20885c0,-1.25196 0.7,-2.3871 1.832,-3.20885c1.131,-0.82175 2.694,-1.33011 4.418,-1.33011z" fill="url(#color-8)" stroke-width="1" stroke-linecap="round"/><path d="M269,156.4235c1.724,0 3.287,0.50836 4.418,1.33011c1.132,0.82175 1.832,1.95688 1.832,3.20885c0,1.25196 -0.7,2.3871 -1.832,3.20885c-1.131,0.82175 -2.694,1.33011 -4.418,1.33011c-1.724,0 -3.287,-0.50836 -4.418,-1.33011c-1.132,-0.82175 -1.832,-1.95688 -1.832,-3.20885c0,-1.25196 0.7,-2.3871 1.832,-3.20885c1.131,-0.82175 2.694,-1.33011 4.418,-1.33011z" fill="url(#color-9)" stroke-width="1" stroke-linecap="butt"/></g><path d="M216.27617,106.57959c0.685,-0.00868 18.82083,-2.93751 19.72383,-1.86079c0.891,0.99226 2.578,1.38616 3.75,2.17081c0.944,0.63072 2.395,1.00568 2.75,1.97346c0.32,0.58651 -0.488,1.2267 -1.136,1.72165c-0.74,0.56046 -1.67,1.0412 -2.739,1.0412c-1.069,0 -2.24,-0.34575 -2.739,-1.0412c-1.336,-1.98846 -3.4616,-1.05288 -3.7186,-3.17632c-0.145,-1.2638 -16.45123,-0.91959 -15.89123,-0.82881z" fill="#cd9933" stroke-width="1" stroke-linecap="round"/></g><path d="M219.76087,137.49516c2.069,0 4.33762,-1.81406 5.69562,0.44894c1.358,2.262 1.24322,3.32108 -0.11478,5.58308c-1.358,2.263 -3.87271,3.02429 -5.94171,3.02429c-2.069,0 -3.944,1.79753 -5.302,-0.46547c-1.358,-2.262 -2.198,-1.22891 -2.198,-4.67791c0,-3.449 -1.07912,0.97959 0.27888,-1.28241c1.358,-2.263 5.51299,-2.63052 7.58199,-2.63052z" fill="#ffffff" stroke="none" stroke-width="1" stroke-linecap="butt"/><path d="M219.81442,138.35072c1.4829,0 2.10516,-0.65947 3.07826,0.60843c0.27234,0.3546 1.87517,1.41194 0.90217,2.67874c-0.9731,1.268 -2.3171,2.052 -3.8,2.052c-1.4829,0 -2.8269,-0.784 -3.8,-2.052c-0.973,-1.2668 2.13667,-3.28717 3.61957,-3.28717z" fill="#9a6732" stroke="none" stroke-width="1.14582" stroke-linecap="butt"/><path d="M258.18159,135.40187c1.63037,0 2.02808,0.6343 3.09819,2.41754c1.0701,1.78246 1.0475,1.14036 1.0475,3.85818c0,2.71781 -1.16601,0.89556 -2.23611,2.67801c-1.0701,1.78324 -1.53943,1.87905 -3.1698,1.87905c-1.63037,0 -3.864,2.67668 -4.93411,0.89343c-1.0701,-1.78246 -1.73202,-5.00109 -1.73202,-7.7189c0,-2.71781 1.52124,-1.46281 2.59135,-3.24526c1.0701,-1.78324 3.70463,-0.76205 5.33501,-0.76205z" fill="#ffffff" stroke="none" stroke-width="1" stroke-linecap="butt"/><path d="M256.3664,137.58485c1.45801,0 2.77945,0.31615 3.73622,0.82743c0.95667,0.51088 1.54856,1.21644 1.54856,1.99532c0,0.77884 -0.5919,1.48444 -1.54856,1.99528c-0.95677,0.51132 -2.27821,0.82747 -3.73622,0.82747c-1.45801,0 -2.77945,-0.31615 -3.73622,-0.82747c-0.95667,-0.51084 -1.54856,-1.21644 -1.54856,-1.99528c0,-0.77888 0.5919,-1.48444 1.54856,-1.99532c0.95677,-0.51128 2.27821,-0.82743 3.73622,-0.82743z" fill="#9a6732" stroke="none" stroke-width="1.14582" stroke-linecap="butt"/><path d="M240.15,144c1.931,0 3.681,0.448 4.948,1.172c1.268,0.724 2.052,1.724 2.052,2.828c0,1.104 -0.784,2.104 -2.052,2.828c-1.267,0.724 -3.017,1.172 -4.948,1.172c-1.931,0 -3.681,-0.448 -4.948,-1.172c-1.268,-0.724 -2.052,-1.724 -2.052,-2.828c0,-1.104 0.784,-2.104 2.052,-2.828c1.267,-0.724 3.017,-1.172 4.948,-1.172z" fill="#343432" stroke="none" stroke-width="1" stroke-linecap="butt"/><path d="M239.9,155.1852v-7.1945" fill="none" stroke="#343432" stroke-width="2.57151" stroke-linecap="round"/><path d="M239.9082,157.8414c2.4445,-0.0078 7.79528,-1.03471 10.19878,-0.56141c0.6011,0.1181 3.71343,7.70893 3.56713,8.09773c-0.7143,1.5653 -7.36071,-2.70321 -8.71811,-1.66011c-1.3389,1.0276 -3.1799,1.4516 -4.8661,1.4215c-1.6854,-0.034 -3.522,-0.5985 -4.8434,-1.6799c-1.2682,-1.0368 -7.26791,3.34991 -7.94251,1.88821c-0.1362,-0.4097 5.26241,-6.68201 5.82001,-6.78691c2.2322,-0.4217 4.5245,-0.7169 6.7842,-0.7191z" fill="#343432" stroke="none" stroke-width="1" stroke-linecap="round"/><path d="M233.05991,99.93383c0,0 7.66499,4.09487 10.55682,7.17446c4.30148,4.58078 12.7468,17.64226 12.7468,17.64226" fill="none" stroke="#ff0000" stroke-width="10" stroke-linecap="round"/><path d="M261.74294,101.93194l-33.01941,16.33088" fill="none" stroke="#ff0000" stroke-width="10" stroke-linecap="round"/></g></g></svg>