<svg version="1.1" xmlns="http://www.w3.org/2000/svg" xmlns:xlink="http://www.w3.org/1999/xlink" width="91.15073" height="101.46486" viewBox="0,0,91.15073,101.46486"><g transform="translate(-189.5,-140.15334)"><g data-paper-data="{&quot;isPaintingLayer&quot;:true}" fill="#9966ff" fill-rule="nonzero" stroke="#000000" stroke-width="0" stroke-linecap="butt" stroke-linejoin="miter" stroke-miterlimit="10" stroke-dasharray="" stroke-dashoffset="0" style="mix-blend-mode: normal"><path d="M189.5,209.8125v-69.65916c0.14594,0.31442 0.28719,0.61692 0.42005,0.90363c2.31482,4.99532 8.3815,9.34681 13.46758,11.16753c0.94694,0.33899 1.76354,1.42764 2.57145,1.90805c6.58665,3.91665 16.68574,6.69459 24.52841,6.87296c14.35587,0.32651 34.70804,-3.33465 45.74655,-12.60471c1.73966,-1.46095 3.17169,-3.40822 4.26596,-5.6354v67.04709z"/><path d="M189.65073,241.61819v-69.65916c0.14594,0.31442 0.28719,0.61692 0.42005,0.90363c2.31482,4.99532 8.3815,9.34681 13.46758,11.16753c0.94694,0.33899 1.76354,1.42764 2.57145,1.90805c6.58665,3.91665 16.68574,6.69459 24.52841,6.87296c14.35587,0.32651 34.70804,-3.33465 45.74655,-12.60471c1.73966,-1.46095 3.17169,-3.40822 4.26596,-5.6354v67.04709z"/></g></g></svg>